  0
SECTION
  2
HEADER
  9
$ANGBASE
  50
0.0
  9
$ANGDIR
  70
1
  9
$MEASUREMENT
  70
1
  0
ENDSEC
  0
SECTION
  2
TABLES
  0
TABLE
  2
LTYPE
  70
4
  0
LTYPE
  5
40F
  2
CONTINUOUS
  70
0
  3
Solid line
  72
65
  73
0
  40
0.0
  0
LTYPE
  5
410
  2
DASHDOT
 70
0
  3
Dash Dot ____ _ ____ _
 72
65
 73
4
 40
2.0
 49
1.25
 49
-0.25
 49
0.25
 49
-0.25
  0
LTYPE
  5
411
  2
DASHED
 70
0
  3
Dashed __ __ __ __ __
 72
65
 73
2
 40
0.75
 49
0.5
 49
-0.25
  0
LTYPE
  5
43B
  2
DOTTED
 70
0
  3
Dotted .  .  .  .
 72
65
 73
2
 40
0.2
 49
0.0
 49
-0.2
  0
ENDTAB
  0
TABLE
  2
STYLE
  70
4
  0
STYLE
  2
KICAD
  70
0
  40
0
  41
1
  42
1
  50
0
  71
0
  3
isocp.shx
  0
STYLE
  2
KICADB
  70
0
  40
0
  41
1
  42
1
  50
0
  71
0
  3
isocp.shx
  0
STYLE
  2
KICADI
  70
0
  40
0
  41
1
  42
1
  50
15
  71
0
  3
isocp.shx
  0
STYLE
  2
KICADBI
  70
0
  40
0
  41
1
  42
1
  50
15
  71
0
  3
isocp.shx
  0
ENDTAB
  0
TABLE
  2
LAYER
  70
1
  0
LAYER
  2
BLACK
  70
0
  62
7
  6
CONTINUOUS
  0
ENDTAB
  0
ENDSEC
  0
SECTION
  2
ENTITIES
0
ARC
8
BLACK
10
116.5
20
-124.75
40
0.5
50
45
51
90
0
ARC
8
BLACK
10
117.5
20
-62.75
40
0.5
50
-90
51
-0
0
ARC
8
BLACK
10
118.5
20
-61.5
40
0.5
50
90
51
180
0
LINE
8
BLACK
6
CONTINUOUS
10
118
20
-61.5
11
118
21
-62.75
0
LINE
8
BLACK
6
CONTINUOUS
10
80.5
20
-68
11
61.5
21
-68
0
LINE
8
BLACK
6
CONTINUOUS
10
98.5
20
-68
11
80.5
21
-68
0
LINE
8
BLACK
6
CONTINUOUS
10
174
20
-66.25
11
174
21
-67.5
0
ARC
8
BLACK
10
173.5
20
-66.25
40
0.5
50
-0
51
90
0
ARC
8
BLACK
10
174.5
20
-67.5
40
0.5
50
-180
51
-90
0
LINE
8
BLACK
6
CONTINUOUS
10
194.25
20
-68
11
174.5
21
-68
0
ARC
8
BLACK
10
180.07
20
-152.3
40
0.884816
50
-124.408
51
-34.4085
0
ARC
8
BLACK
10
127.75
20
-138.5
40
0.5
50
-134.711
51
-90
0
LINE
8
BLACK
6
CONTINUOUS
10
116.854
20
-124.396
11
127.398
21
-138.855
0
ARC
8
BLACK
10
61.5
20
-123.75
40
0.5
50
-180
51
-90
0
ARC
8
BLACK
10
61.5
20
-68.5
40
0.5
50
90
51
180
0
ARC
8
BLACK
10
98.5
20
-67.5
40
0.5
50
-90
51
-0
0
ARC
8
BLACK
10
99.5
20
-63.75
40
0.5
50
90
51
180
0
ARC
8
BLACK
10
135.5
20
-61.5
40
0.5
50
-0
51
90
0
ARC
8
BLACK
10
136.5
20
-62.75
40
0.5
50
-180
51
-90
0
ARC
8
BLACK
10
154.5
20
-63.75
40
0.5
50
-0
51
90
0
ARC
8
BLACK
10
155.5
20
-65.25
40
0.5
50
-180
51
-90
0
ARC
8
BLACK
10
194.25
20
-68.5
40
0.5
50
-0
51
90
0
LINE
8
BLACK
6
CONTINUOUS
10
180.8
20
-152.8
11
194.75
21
-128.5
0
LINE
8
BLACK
6
CONTINUOUS
10
164.75
20
-144.5
11
179.57
21
-153.03
0
LINE
8
BLACK
6
CONTINUOUS
10
127.75
20
-139
11
164.75
21
-144.5
0
LINE
8
BLACK
6
CONTINUOUS
10
194.75
20
-68.5
11
194.75
21
-128.5
0
LINE
8
BLACK
6
CONTINUOUS
10
116.5
20
-124.25
11
80.5
21
-124.25
0
LINE
8
BLACK
6
CONTINUOUS
10
61.5
20
-124.25
11
80.5
21
-124.25
0
LINE
8
BLACK
6
CONTINUOUS
10
61
20
-68.5
11
61
21
-123.75
0
LINE
8
BLACK
6
CONTINUOUS
10
99
20
-63.75
11
99
21
-67.5
0
LINE
8
BLACK
6
CONTINUOUS
10
117.5
20
-63.25
11
99.5
21
-63.25
0
LINE
8
BLACK
6
CONTINUOUS
10
135.5
20
-61
11
118.5
21
-61
0
LINE
8
BLACK
6
CONTINUOUS
10
136
20
-62.75
11
136
21
-61.5
0
LINE
8
BLACK
6
CONTINUOUS
10
154.5
20
-63.25
11
136.5
21
-63.25
0
LINE
8
BLACK
6
CONTINUOUS
10
155
20
-65.25
11
155
21
-63.75
0
LINE
8
BLACK
6
CONTINUOUS
10
173.5
20
-65.75
11
155.5
21
-65.75
  0
ENDSEC
  0
EOF
